# xmcd CD database file
#
# Track frame offsets:
#	180
#	12716
#	27105
#	39392
#	53621
#	69492
#	87496
#	103441
#	117584
#	131415
#	145187
#	158644
#	171654
#	183093
#
# Disc length: 2627 seconds
#
# Revision: 0
# Processed by: cddbd v1.5.2PL0 Copyright (c) Steve Scherf et al.
# Submitted via: CDex 1.70beta2
#
DISCID=c30a410e
DTITLE=Charlie Parker - Great Master [CD5 of 10)
DYEAR=1900
DGENRE=Jazz
TTITLE0=All The Things You Are (1945)
TTITLE1=Bird Of Paradise (1947)
TTITLE2=Charlie's Wig (1947)
TTITLE3=Dewey Square (1947)
TTITLE4=Easy To Love (1950)
TTITLE5=Hallelujah! (1945)
TTITLE6=Just Friends (1949)
TTITLE7=Lover (1952)
TTITLE8=Moose The Mooche (1946)
TTITLE9=Parker's Mood (1948)
TTITLE10=Scrapple From The Apple (1947)
TTITLE11=Stupendous (1947)
TTITLE12=The Street Beat (1945)
TTITLE13=Charlie Parker - Why Do I Love You?
EXTD=
EXTT0=
EXTT1=
EXTT2=
EXTT3=
EXTT4=
EXTT5=
EXTT6=
EXTT7=
EXTT8=
EXTT9=
EXTT10=
EXTT11=
EXTT12=
EXTT13=
PLAYORDER=
